<mxfile host="app.diagrams.net" modified="2020-09-03T06:11:53.826Z" agent="5.0 (X11)" etag="vWTrekSDDFCFkooo8S75" version="13.6.6" type="github">
  <diagram id="21VgOU-teF4cOT1An5-7" name="Page-1">
    <mxGraphModel dx="1422" dy="748" grid="1" gridSize="10" guides="1" tooltips="1" connect="1" arrows="1" fold="1" page="1" pageScale="1" pageWidth="850" pageHeight="1100" math="0" shadow="0">
      <root>
        <mxCell id="0" />
        <mxCell id="1" parent="0" />
        <mxCell id="9S1AJZHRasZA08K6zmYZ-1" value="Compi-Flick" style="shape=umlFrame;whiteSpace=wrap;html=1;width=110;height=20;" vertex="1" parent="1">
          <mxGeometry x="190" y="250" width="440" height="670" as="geometry" />
        </mxCell>
        <mxCell id="9S1AJZHRasZA08K6zmYZ-4" style="rounded=0;orthogonalLoop=1;jettySize=auto;html=1;endArrow=none;endFill=0;" edge="1" parent="1" source="9S1AJZHRasZA08K6zmYZ-2" target="9S1AJZHRasZA08K6zmYZ-3">
          <mxGeometry relative="1" as="geometry" />
        </mxCell>
        <mxCell id="9S1AJZHRasZA08K6zmYZ-2" value="GerÃ¤t vorbeibringen" style="ellipse;whiteSpace=wrap;html=1;" vertex="1" parent="1">
          <mxGeometry x="250" y="370" width="150" height="60" as="geometry" />
        </mxCell>
        <mxCell id="9S1AJZHRasZA08K6zmYZ-3" value="Offerte erhalten" style="ellipse;whiteSpace=wrap;html=1;" vertex="1" parent="1">
          <mxGeometry x="380" y="470" width="145" height="60" as="geometry" />
        </mxCell>
        <mxCell id="9S1AJZHRasZA08K6zmYZ-6" style="edgeStyle=none;rounded=0;orthogonalLoop=1;jettySize=auto;html=1;endArrow=none;endFill=0;" edge="1" parent="1" source="9S1AJZHRasZA08K6zmYZ-5" target="9S1AJZHRasZA08K6zmYZ-2">
          <mxGeometry relative="1" as="geometry" />
        </mxCell>
        <mxCell id="9S1AJZHRasZA08K6zmYZ-5" value="Kundin" style="shape=umlActor;verticalLabelPosition=bottom;verticalAlign=top;html=1;outlineConnect=0;" vertex="1" parent="1">
          <mxGeometry x="70" y="430" width="30" height="60" as="geometry" />
        </mxCell>
        <mxCell id="9S1AJZHRasZA08K6zmYZ-12" style="edgeStyle=none;rounded=0;orthogonalLoop=1;jettySize=auto;html=1;endArrow=none;endFill=0;" edge="1" parent="1" source="9S1AJZHRasZA08K6zmYZ-7" target="9S1AJZHRasZA08K6zmYZ-9">
          <mxGeometry relative="1" as="geometry" />
        </mxCell>
        <mxCell id="9S1AJZHRasZA08K6zmYZ-14" style="edgeStyle=none;rounded=0;orthogonalLoop=1;jettySize=auto;html=1;endArrow=none;endFill=0;" edge="1" parent="1" source="9S1AJZHRasZA08K6zmYZ-7" target="9S1AJZHRasZA08K6zmYZ-13">
          <mxGeometry relative="1" as="geometry" />
        </mxCell>
        <mxCell id="9S1AJZHRasZA08K6zmYZ-7" value="Zeit" style="shape=umlActor;verticalLabelPosition=bottom;verticalAlign=top;html=1;outlineConnect=0;" vertex="1" parent="1">
          <mxGeometry x="70" y="600" width="30" height="60" as="geometry" />
        </mxCell>
        <mxCell id="9S1AJZHRasZA08K6zmYZ-11" style="edgeStyle=none;rounded=0;orthogonalLoop=1;jettySize=auto;html=1;endArrow=none;endFill=0;" edge="1" parent="1" source="9S1AJZHRasZA08K6zmYZ-9" target="9S1AJZHRasZA08K6zmYZ-10">
          <mxGeometry relative="1" as="geometry" />
        </mxCell>
        <mxCell id="9S1AJZHRasZA08K6zmYZ-9" value="Reparatur beginnen" style="ellipse;whiteSpace=wrap;html=1;" vertex="1" parent="1">
          <mxGeometry x="270" y="650" width="160" height="60" as="geometry" />
        </mxCell>
        <mxCell id="9S1AJZHRasZA08K6zmYZ-10" value="Ersatzteile bestellen" style="ellipse;whiteSpace=wrap;html=1;" vertex="1" parent="1">
          <mxGeometry x="450" y="605" width="160" height="55" as="geometry" />
        </mxCell>
        <mxCell id="9S1AJZHRasZA08K6zmYZ-13" value="Rechnung schicken" style="ellipse;whiteSpace=wrap;html=1;" vertex="1" parent="1">
          <mxGeometry x="290" y="750" width="150" height="60" as="geometry" />
        </mxCell>
      </root>
    </mxGraphModel>
  </diagram>
</mxfile>
